<svg width="32" height="32" viewBox="0 0 32 32" fill="none" xmlns="http://www.w3.org/2000/svg">
  <!-- Background with brand indigo -->
  <rect width="32" height="32" rx="4" fill="#1A237E"/>
  
  <!-- Meridian compass-inspired logo -->
  <g fill="#FFFFFF">
    <!-- Central circle -->
    <circle cx="16" cy="16" r="3" fill="#FF6B35"/>
    
    <!-- Four main compass points -->
    <polygon points="16,4 18,10 16,12 14,10" fill="#FFFFFF"/>
    <polygon points="28,16 22,14 20,16 22,18" fill="#FFFFFF"/>
    <polygon points="16,28 14,22 16,20 18,22" fill="#FFFFFF"/>
    <polygon points="4,16 10,18 12,16 10,14" fill="#FFFFFF"/>
    
    <!-- Four diagonal points (smaller) -->
    <polygon points="24,8 20,11 21.5,12.5 25.5,9.5" fill="#FFFFFF" opacity="0.7"/>
    <polygon points="24,24 21.5,19.5 20,21 25.5,22.5" fill="#FFFFFF" opacity="0.7"/>
    <polygon points="8,24 11,20 9.5,19.5 6.5,22.5" fill="#FFFFFF" opacity="0.7"/>
    <polygon points="8,8 12.5,9.5 11,11 6.5,9.5" fill="#FFFFFF" opacity="0.7"/>
  </g>
</svg>